<svg xmlns="http://www.w3.org/2000/svg" viewBox="0 0 1400 700" role="img" aria-labelledby="t d"><title id="t">Repository architecture</title><desc id="d">Visual map of the DB Legends guide repository.</desc><defs><linearGradient id="g" x1="0" x2="1"><stop stop-color="#071329"/><stop offset=".5" stop-color="#1a2458"/><stop offset="1" stop-color="#280a30"/></linearGradient></defs><rect width="1400" height="700" rx="36" fill="url(#g)"/><g font-family="Arial,Helvetica,sans-serif" fill="#fff"><text x="70" y="78" font-size="38" font-weight="800">DB LEGENDS · REPOSITORY ARCHITECTURE</text><text x="70" y="115" font-size="19" fill="#9fcaff">Guides · PvP · Equipment · Bilderbuch · Reports · Visual Art</text><g fill="#101b39" stroke="#59bfff" stroke-width="3"><rect x="70" y="175" width="350" height="145" rx="24"/><rect x="525" y="175" width="350" height="145" rx="24"/><rect x="980" y="175" width="350" height="145" rx="24"/><rect x="70" y="430" width="350" height="145" rx="24"/><rect x="525" y="430" width="350" height="145" rx="24"/><rect x="980" y="430" width="350" height="145" rx="24"/></g><g font-size="28" font-weight="700"><text x="105" y="220">IN_GAME</text><text x="560" y="220">PvP</text><text x="1015" y="220">BILDERBUCH</text><text x="105" y="475">ASSETS / ART</text><text x="560" y="475">REPORTS</text><text x="1015" y="475">PROFILE / DOCS</text></g><g font-size="18" fill="#cbdcff"><text x="105" y="260">central knowledge hub</text><text x="560" y="260">teams · equipment · matchups</text><text x="1015" y="260">visual books · manga chapters</text><text x="105" y="515">SVG · navigation · diagrams</text><text x="560" y="515">DE · EN · meta snapshots</text><text x="1015" y="515">README · profile · license</text></g><g stroke="#8c6cff" stroke-width="4" fill="none"><path d="M420 245H525"/><path d="M875 245H980"/><path d="M245 320V430"/><path d="M700 320V430"/><path d="M1155 320V430"/></g></g></svg>